PathFileType	4	(X/Y/Z)	C:\Users\Graham\Documents\MATLAB\MOtoNMS_v2_2\MyData\ElaboratedData\S2\17-05-16\staticElaborations\Static1\Static1\\Static1.trc
DataRate	CameraRate	NumFrames	NumMarkers	Units	OrigDataRate	DataStartFrame
100	100	9	38	mm	100	2
Frame#	Time	V_Sacral			R_ASIS			L_ASIS			R_Knee_Lat			R_Knee_Med			R_Thigh_Upper			R_Thigh_Front			R_Thigh_Rear			L_Knee_Lat			L_Knee_Med			L_Thigh_Upper			L_Thigh_Front			L_Thigh_Rear			R_Ankle_Lat			R_Ankle_Med			R_Shank_Upper			R_Shank_Front			R_Shank_Rear			L_Ankle_Lat			L_Ankle_Med			L_Shank_Upper			L_Shank_Front			L_Shank_Rear			R_Heel			R_MTP1			R_MTP5			L_Heel			L_MTP1			L_MTP5			Clavicle			R_Acromium			L_Acromium			LAJC			RAJC			LHJC			RHJC			LKJC			RKJC		
		X1	Y1	Z1	X2	Y2	Z2	X3	Y3	Z3	X4	Y4	Z4	X5	Y5	Z5	X6	Y6	Z6	X7	Y7	Z7	X8	Y8	Z8	X9	Y9	Z9	X10	Y10	Z10	X11	Y11	Z11	X12	Y12	Z12	X13	Y13	Z13	X14	Y14	Z14	X15	Y15	Z15	X16	Y16	Z16	X17	Y17	Z17	X18	Y18	Z18	X19	Y19	Z19	X20	Y20	Z20	X21	Y21	Z21	X22	Y22	Z22	X23	Y23	Z23	X24	Y24	Z24	X25	Y25	Z25	X26	Y26	Z26	X27	Y27	Z27	X28	Y28	Z28	X29	Y29	Z29	X30	Y30	Z30	X31	Y31	Z31	X32	Y32	Z32	X33	Y33	Z33	X34	Y34	Z34	X35	Y35	Z35	X36	Y36	Z36	X37	Y37	Z37	X38	Y38	Z38	

2	0.010000	160.085689	1006.111776	28.649798	365.202203	1017.471290	150.439921	356.552267	1026.251622	-85.269365	234.593637	519.121947	218.189656	242.151480	514.544755	109.976145	380.234237	740.942598	169.652275	333.378095	636.886827	139.830313	318.574460	648.673597	201.180229	251.520990	535.199849	-146.900003	243.627662	509.550409	-36.430054	357.343067	781.708938	-138.364361	351.509446	666.233901	-111.526660	299.607614	670.840217	-158.884433	188.043427	106.747296	244.441616	219.933560	107.840703	159.225519	265.399275	374.558480	220.710053	255.406411	258.998663	187.685779	213.708346	262.487821	254.295994	212.902467	90.890080	-182.669099	252.620368	113.327463	-102.057606	276.127679	357.159437	-163.307396	271.299406	245.716400	-129.310452	224.841487	250.660385	-190.639568	123.272924	62.999365	194.100476	352.448832	66.005001	200.001828	333.657395	51.249732	282.628280	147.155935	63.807657	-129.841343	388.494036	64.256758	-158.032311	354.530786	50.299918	-235.525047	330.927711	1392.410346	31.856559	231.501395	1441.888003	224.775910	268.824098	1442.622565	-172.059396	232.761417	102.108771	-142.363353	203.988493	107.294000	201.833568	306.176961	938.965891	-53.802001	312.420970	932.627754	116.346208	247.574326	522.375129	-91.665029	238.372559	516.833351	164.082901	
3	0.020000	160.187523	1006.101533	28.672866	365.358257	1017.451789	150.393265	356.621909	1026.258045	-85.325968	234.682062	519.115346	218.144295	242.225823	514.541090	109.953776	380.364327	740.911388	169.590766	333.492591	636.869495	139.778066	318.716987	648.675652	201.133463	251.557881	535.204489	-146.911925	243.679314	509.547005	-36.449585	357.381606	781.708530	-138.440863	351.563495	666.244646	-111.600143	299.618118	670.852511	-159.038236	188.044655	106.751148	244.430926	219.938356	107.845539	159.217556	265.464400	374.551091	220.682931	255.445496	259.003057	187.667002	213.760157	262.497696	254.279801	212.903315	90.896891	-182.668055	252.623950	113.327067	-102.057437	276.153044	357.161247	-163.318931	271.314703	245.717917	-129.324221	224.855772	250.667042	-190.648385	123.276255	63.002390	194.102363	352.956629	66.362171	200.033935	333.659404	51.251251	282.627336	147.160278	63.806659	-129.837121	388.508915	64.270075	-158.030958	354.537865	50.295195	-235.525875	331.059011	1392.398475	31.919934	231.672255	1441.827989	224.874036	268.928261	1442.677747	-171.951961	232.763632	102.111979	-142.362746	203.991505	107.298343	201.824241	306.257521	938.963612	-53.847436	312.563876	932.606795	116.307084	247.618597	522.375747	-91.680755	238.453942	516.828218	164.049035	
4	0.030000	160.288770	1006.092652	28.694385	365.511943	1017.432160	150.346568	356.691899	1026.264321	-85.381634	234.768354	519.109440	218.099728	242.303089	514.542794	109.934160	380.490497	740.879921	169.529556	333.602783	636.851811	139.725966	318.855659	648.676633	201.086934	251.590989	535.209011	-146.924136	243.727025	509.544381	-36.468695	357.418714	781.707786	-138.515921	351.614448	666.254559	-111.671955	299.627836	670.864083	-159.183763	188.044525	106.754859	244.419779	219.943096	107.850118	159.209850	265.526982	374.544110	220.655843	255.483225	259.007121	187.648749	213.809671	262.507394	254.264036	212.903822	90.903732	-182.667965	252.627037	113.326884	-102.057591	276.175502	357.163597	-163.330898	271.328498	245.719869	-129.337668	224.867986	250.673694	-190.657161	123.279236	63.005194	194.104050	353.438085	66.700362	200.067947	333.661714	51.252695	282.626192	147.164069	63.805924	-129.832770	388.527573	64.289535	-158.025931	354.544310	50.290474	-235.526705	331.188576	1392.387374	31.982226	231.839835	1441.769521	224.969909	269.031365	1442.732483	-171.847126	232.765429	102.115308	-142.362778	203.993810	107.302488	201.814815	306.337523	938.961891	-53.892650	312.704264	932.586403	116.267539	247.659007	522.376696	-91.696416	238.535722	516.826117	164.016944	
5	0.040000	160.390421	1006.086226	28.712708	365.662812	1017.411899	150.299453	356.763777	1026.270153	-85.435820	234.850872	519.104848	218.056074	242.379384	514.547262	109.915283	380.610388	740.847702	169.468667	333.705925	636.833267	139.673717	318.987957	648.675601	201.040359	251.617578	535.213301	-146.937062	243.767488	509.543255	-36.487178	357.454238	781.706178	-138.588515	351.660471	666.262873	-111.740603	299.636951	670.874302	-159.314149	188.041768	106.758333	244.407716	219.947835	107.854067	159.202664	265.584866	374.537936	220.628464	255.518263	259.010517	187.631233	213.854811	262.516887	254.248708	212.903700	90.910613	-182.669720	252.629345	113.327128	-102.058334	276.192885	357.166926	-163.343706	271.339607	245.722638	-129.350691	224.876604	250.680307	-190.665944	123.281498	63.007663	194.105088	353.870304	67.002917	200.104861	333.664657	51.253951	282.624559	147.167065	63.805627	-129.828121	388.548987	64.313763	-158.017937	354.549594	50.285612	-235.527555	331.315947	1392.377288	32.042474	232.003000	1441.713186	225.061938	269.133118	1442.786218	-171.746861	232.766522	102.118871	-142.364027	203.994801	107.306200	201.805190	306.417722	938.961080	-53.937729	312.841457	932.566783	116.226884	247.692533	522.378278	-91.712120	238.615128	516.826055	163.985678	
6	0.050000	160.493271	1006.083068	28.726489	365.810509	1017.390621	150.251739	356.838762	1026.275207	-85.488002	234.928193	519.101992	218.013344	242.449460	514.550164	109.894294	380.722370	740.814448	169.408328	333.800098	636.813529	139.621164	319.111964	648.671918	200.993577	251.635901	535.217243	-146.950979	243.798277	509.544142	-36.504874	357.488388	781.703269	-138.657675	351.700407	666.269011	-111.804702	299.645804	670.882679	-159.424592	188.035479	106.761515	244.394443	219.952609	107.857110	159.196126	265.636363	374.532874	220.600546	255.549570	259.013035	187.614561	213.893959	262.526173	254.233761	212.902767	90.917518	-182.673973	252.630700	113.327959	-102.059855	276.203797	357.171515	-163.357584	271.347208	245.726467	-129.363222	224.880697	250.686836	-190.674784	123.282774	63.009685	194.105110	354.235747	67.257249	200.144415	333.668476	51.254908	282.622229	147.169144	63.805869	-129.823077	388.571237	64.339896	-158.008549	354.553345	50.280503	-235.528451	331.440696	1392.368259	32.099713	232.161033	1441.659341	225.148786	269.233121	1442.838295	-171.652819	232.766733	102.122739	-142.366914	203.994044	107.309313	201.795284	306.498728	938.961366	-53.982601	312.974930	932.548080	116.184730	247.717089	522.380692	-91.727926	238.688826	516.826078	163.953819	
7	0.060000	160.597816	1006.083588	28.734788	365.954765	1017.368107	150.203490	356.917613	1026.279141	-85.537708	234.999211	519.101057	217.971440	242.507012	514.545638	109.867657	380.825696	740.780142	169.349010	333.884403	636.792497	139.568346	319.226469	648.665314	200.946597	251.645457	535.220724	-146.965974	243.818154	509.547306	-36.521685	357.521782	781.698771	-138.722524	351.733959	666.272640	-111.863085	299.654939	670.888912	-159.512798	188.025228	106.764399	244.379875	219.957419	107.859088	159.190208	265.680394	374.529110	220.571951	255.576475	259.014599	187.598715	213.926100	262.535278	254.219060	212.900974	90.924397	-182.681061	252.631048	113.329462	-102.062246	276.207814	357.177448	-163.372543	271.350950	245.731434	-129.375238	224.880076	250.693219	-190.683727	123.282944	63.011158	194.103882	354.523874	67.456016	200.185107	333.673301	51.255474	282.619102	147.170318	63.806671	-129.817632	388.591481	64.363546	-158.000230	354.555392	50.275107	-235.529436	331.562395	1392.360099	32.153000	232.313654	1441.608092	225.229441	269.330821	1442.887941	-171.566257	232.766011	102.126930	-142.371654	203.991323	107.311743	201.785042	306.580937	938.962733	-54.027026	313.104339	932.530368	116.141053	247.731805	522.384015	-91.743830	238.753111	516.823348	163.919548	
8	0.070000	160.704203	1006.087728	28.737120	366.095402	1017.344332	150.155007	357.000566	1026.281646	-85.584576	235.063216	519.101988	217.930185	242.545258	514.526823	109.831437	380.920510	740.745042	169.291382	333.958992	636.770305	139.515509	319.330971	648.655877	200.899593	251.647046	535.223644	-146.981949	243.827202	509.552761	-36.537589	357.555399	781.692568	-138.782354	351.761738	666.273697	-111.914903	299.665129	670.892918	-159.578969	188.011111	106.767043	244.364146	219.962219	107.859948	159.184735	265.716566	374.526724	220.542663	255.598691	259.015243	187.583565	213.950881	262.544256	254.204385	212.898399	90.931169	-182.690962	252.630463	113.331644	-102.065484	276.205519	357.184596	-163.388380	271.350990	245.737452	-129.386754	224.875301	250.699385	-190.692805	123.282054	63.012012	194.101338	354.731828	67.597524	200.224619	333.679139	51.255599	282.615187	147.170730	63.807973	-129.811863	388.606095	64.379053	-157.996190	354.555774	50.269466	-235.530562	331.680612	1392.352404	32.201470	232.460976	1441.559300	225.303256	269.425510	1442.934294	-171.487988	232.764431	102.131406	-142.378223	203.986665	107.313495	201.774441	306.664519	938.964965	-54.070635	313.229557	932.513633	116.096178	247.737124	522.388202	-91.759769	238.804237	516.814406	163.880811	
9	0.080000	160.812235	1006.094957	28.733460	366.232344	1017.319450	150.106757	357.087343	1026.282505	-85.628403	235.119948	519.104525	217.889367	242.557777	514.486717	109.781756	381.007723	740.709639	169.236211	334.024948	636.747285	139.463077	319.425592	648.643987	200.852877	251.642607	535.225931	-146.998659	243.826782	509.560294	-36.552637	357.590459	781.684732	-138.836710	351.785169	666.272365	-111.959735	299.677356	670.894828	-159.625405	187.993711	106.769559	244.347576	219.966927	107.859722	159.179440	265.745150	374.525692	220.512775	255.616273	259.015059	187.568888	213.968585	262.553185	254.189453	212.895222	90.937730	-182.703315	252.629122	113.334438	-102.069433	276.198376	357.192643	-163.404727	271.347959	245.744300	-129.397814	224.867554	250.705253	-190.702015	123.280311	63.012235	194.097586	354.864085	67.685344	200.260426	333.685883	51.255288	282.610594	147.170625	63.809657	-129.805907	388.611022	64.380069	-158.000058	354.554718	50.263704	-235.531883	331.794915	1392.344615	32.244411	232.603379	1441.512642	225.369947	269.516371	1442.976467	-171.418379	232.762172	102.136084	-142.386374	203.980319	107.314641	201.763508	306.749437	938.967684	-54.113016	313.350689	932.497768	116.050698	247.734694	522.393112	-91.775648	238.838863	516.795621	163.835562	
10	0.090000	160.921426	1006.104322	28.724203	366.365627	1017.293765	150.059279	357.177236	1026.281637	-85.669207	235.169611	519.108263	217.848793	242.539517	514.419270	109.715350	381.088786	740.674580	169.184215	334.084048	636.723901	139.411578	319.510955	648.630215	200.806830	251.634895	535.227553	-147.015770	243.819327	509.569523	-36.566954	357.628250	781.675501	-138.885464	351.806290	666.269040	-111.997657	299.692736	670.894966	-159.655873	187.973995	106.772097	244.330607	219.971438	107.858493	159.174032	265.766986	374.525911	220.482470	255.629554	259.014144	187.554421	213.980041	262.562154	254.173948	212.891692	90.943965	-182.717466	252.627268	113.337707	-102.073860	276.188471	357.201126	-163.421130	271.342863	245.751659	-129.408479	224.858419	250.710737	-190.711314	123.278053	63.011892	194.092888	354.931150	67.727271	200.290378	333.693327	51.254609	282.605498	147.170319	63.811571	-129.799933	388.602325	64.360465	-158.015359	354.552594	50.258003	-235.533435	331.904903	1392.336112	32.281324	232.741358	1441.467685	225.429567	269.602552	1443.013636	-171.357388	232.759480	102.140836	-142.395663	203.972717	107.315295	201.752320	306.835495	938.970416	-54.153818	313.468078	932.482576	116.005328	247.727111	522.398538	-91.791362	238.854564	516.763767	163.782072	
